HIERARCHY
ROOT root
{
	OFFSET 0.000000 0.000000 0.000000
	CHANNELS 6 Xposition Yposition Zposition Zrotation Yrotation Xrotation
	JOINT lhip
	{
		OFFSET 0.058581 -0.082280 -0.017664
		CHANNELS 3 Zrotation Yrotation Xrotation
		JOINT lknee
		{
			OFFSET 0.043451 -0.386469 0.008037
			CHANNELS 3 Zrotation Yrotation Xrotation
			JOINT lankle
			{
				OFFSET -0.014790 -0.426874 -0.037428
				CHANNELS 3 Zrotation Yrotation Xrotation
				JOINT ltoe
				{
					OFFSET 0.041054 -0.060286 0.122042
					CHANNELS 3 Zrotation Yrotation Xrotation
					End Site
					{
						OFFSET 0.000000 0.000000 0.000000
					}
				}
			}
		}
	}
	JOINT rhip
	{
		OFFSET -0.060310 -0.090513 -0.013543
		CHANNELS 3 Zrotation Yrotation Xrotation
		JOINT rknee
		{
			OFFSET -0.043257 -0.383688 -0.004843
			CHANNELS 3 Zrotation Yrotation Xrotation
			JOINT rankle
			{
				OFFSET 0.019056 -0.420046 -0.034562
				CHANNELS 3 Zrotation Yrotation Xrotation
				JOINT rtoe
				{
					OFFSET -0.034840 -0.062106 0.130323
					CHANNELS 3 Zrotation Yrotation Xrotation
					End Site
					{
						OFFSET 0.000000 0.000000 0.000000
					}
				}
			}
		}
	}
	JOINT lowerback
	{
		OFFSET 0.004439 0.124404 -0.038385
		CHANNELS 3 Zrotation Yrotation Xrotation
		JOINT upperback
		{
			OFFSET 0.004488 0.137956 0.026820
			CHANNELS 3 Zrotation Yrotation Xrotation
			JOINT chest
			{
				OFFSET -0.002265 0.056032 0.002855
				CHANNELS 3 Zrotation Yrotation Xrotation
				JOINT lowerneck
				{
					OFFSET -0.013390 0.211636 -0.033468
					CHANNELS 3 Zrotation Yrotation Xrotation
					JOINT upperneck
					{
						OFFSET 0.010113 0.088937 0.050410
						CHANNELS 3 Zrotation Yrotation Xrotation
						End Site
						{
							OFFSET 0.000000 0.000000 0.000000
						}
					}
				}
				JOINT lclavicle
				{
					OFFSET 0.071702 0.114000 -0.018898
					CHANNELS 3 Zrotation Yrotation Xrotation
					JOINT lshoulder
					{
						OFFSET 0.122921 0.045205 -0.019046
						CHANNELS 3 Zrotation Yrotation Xrotation
						JOINT lelbow
						{
							OFFSET 0.255332 -0.015649 -0.022946
							CHANNELS 3 Zrotation Yrotation Xrotation
							JOINT lwrist
							{
								OFFSET 0.265709 0.012698 -0.007375
								CHANNELS 3 Zrotation Yrotation Xrotation
								End Site
								{
									OFFSET 0.000000 0.000000 0.000000
								}
							}
						}
					}
				}
				JOINT rclavicle
				{
					OFFSET -0.082954 0.112472 -0.023707
					CHANNELS 3 Zrotation Yrotation Xrotation
					JOINT rshoulder
					{
						OFFSET -0.113228 0.046853 -0.008472
						CHANNELS 3 Zrotation Yrotation Xrotation
						JOINT relbow
						{
							OFFSET -0.260127 -0.014369 -0.031269
							CHANNELS 3 Zrotation Yrotation Xrotation
							JOINT rwrist
							{
								OFFSET -0.269108 0.006794 -0.006027
								CHANNELS 3 Zrotation Yrotation Xrotation
								End Site
								{
									OFFSET 0.000000 0.000000 0.000000
								}
							}
						}
					}
				}
			}
		}
	}
}
MOTION
Frames: 11
Frame Time: 0.033333
0.514889 -0.464290 1.022084 88.874725 -0.446269 85.165649 -1.237557 -0.592187 8.812672 -1.866116 -7.799931 0.107927 1.611610 9.089698 -10.930260 0.000000 -0.000000 0.000000 1.714182 -1.697741 3.086802 0.706558 -2.825347 11.154107 4.627990 -4.973819 -11.344272 0.000000 -0.000000 0.000000 0.872463 1.134602 9.019698 1.579326 -0.431335 6.644257 -0.276412 0.996037 3.697130 -2.413860 4.252933 31.195758 0.226733 4.845736 13.058735 -16.026134 13.026723 7.346165 -54.447584 2.676135 14.840094 -59.235994 -77.733841 75.835834 -4.965599 -12.758703 -25.152715 13.658570 -10.507633 7.334477 56.700528 -10.438640 15.942869 -61.972447 87.751654 -42.585970 11.325659 12.660007 -17.846350 
0.515215 -0.464069 1.021602 88.926752 -0.592401 85.071883 -1.372606 -0.532185 8.848131 -1.917541 -7.828597 0.357224 1.974306 8.809371 -10.958328 0.000000 -0.000000 0.000000 1.493164 -1.746359 3.081353 0.773279 -2.793392 11.325850 4.369107 -4.917735 -11.475807 0.000000 -0.000000 0.000000 0.660991 1.188837 9.085902 1.656237 -0.576096 6.478770 -0.280815 0.830518 3.804798 -2.128344 4.090363 29.952350 -0.170759 4.560171 13.626919 -16.187703 12.778703 7.236826 -54.403919 2.576836 15.030419 -58.552053 -77.591216 74.895302 -4.903268 -13.178105 -24.941692 13.487923 -9.930415 7.081772 56.473281 -10.191407 16.479353 -87.983467 88.754070 -67.981128 11.407836 13.138800 -18.165568 
0.515387 -0.464316 1.021175 89.059320 -0.579793 85.007730 -1.280312 -0.662966 8.984742 -1.936901 -7.764098 0.270647 1.783356 8.454749 -11.308087 0.000000 -0.000000 0.000000 1.536945 -1.747576 3.079441 0.778936 -2.898066 11.560362 4.505845 -4.955883 -11.716167 0.000000 -0.000000 0.000000 0.523594 1.198814 9.281885 1.694738 -0.609562 6.439059 -0.256891 0.875961 3.659379 -1.995795 3.837357 28.515892 0.087240 3.946452 13.892084 -16.529724 12.504443 7.198199 -54.447191 2.294516 14.830167 -54.621678 -77.527946 70.459484 -6.309374 -14.129044 -24.453621 14.177594 -9.813435 6.634279 56.133083 -9.870968 16.525634 -100.842173 88.680860 -80.803135 13.493850 13.818931 -17.032892 
0.515446 -0.465215 1.019571 89.304134 -0.327495 85.498594 -0.717483 -0.956414 8.301510 -2.328855 -7.939154 0.443036 1.889813 8.354673 -11.867168 0.000000 -0.000000 0.000000 1.809483 -1.754624 2.109621 0.873061 -3.197689 12.493025 4.283134 -5.034980 -12.263333 0.000000 -0.000000 0.000000 0.479628 1.081618 9.419468 1.788810 -0.522289 5.663946 -0.115256 0.826281 3.521909 -1.881110 3.272336 26.868220 -0.066772 3.517803 13.259956 -16.794795 12.736139 6.881583 -55.207242 2.108893 14.462869 -46.887822 -77.012428 62.678991 -5.812386 -13.680076 -24.729599 14.218724 -9.605692 6.319542 56.200076 -9.484615 16.648392 -50.791929 88.366720 -30.263157 12.536402 13.453270 -16.251756 
0.515668 -0.465992 1.018812 89.427389 -0.269384 85.501431 -0.466920 -0.976652 8.265272 -2.513338 -8.104067 0.791586 1.894528 8.061519 -12.050837 0.000000 -0.000000 0.000000 1.806484 -1.906222 1.679085 0.930597 -3.312280 13.330767 4.436193 -5.020333 -12.588129 0.000000 -0.000000 0.000000 0.250924 1.065307 9.418918 1.957640 -0.588157 5.531488 0.068795 0.702729 3.562384 -1.770704 3.167033 25.788738 -0.299252 3.069339 13.085951 -17.158105 12.810809 6.565344 -56.046544 1.785947 14.036404 -37.762112 -76.415066 53.551045 -5.396161 -12.941398 -24.432254 14.674989 -9.387660 6.219105 56.116294 -8.690379 16.454335 -37.652600 86.864067 -16.367866 12.178439 12.741275 -14.611854 
0.515788 -0.467683 1.017577 89.445705 -0.302796 85.660840 -0.299249 -1.008727 7.810445 -2.855027 -8.405296 1.503870 2.188790 8.220778 -12.534536 0.000000 -0.000000 0.000000 1.820198 -1.630575 0.594262 0.961091 -3.346435 15.035520 4.579014 -5.387109 -13.708577 0.000000 -0.000000 0.000000 0.055050 1.009093 9.928419 1.915376 -0.372865 4.692368 0.081082 0.839995 3.534430 -1.446964 3.041196 24.361618 -0.137770 2.444090 13.064509 -17.647925 12.949902 5.881777 -56.657780 1.136756 13.283827 -25.644224 -74.397221 41.812115 -3.319346 -12.182212 -23.022567 15.361686 -9.272998 5.668467 56.339865 -8.190733 16.148848 -24.629020 83.369551 -2.334757 10.279365 11.717509 -11.800292 
0.517348 -0.469898 1.016039 89.337629 -0.347087 85.497181 -0.108617 -0.563884 7.906069 -3.071639 -8.688643 1.933191 2.326687 8.029164 -13.119485 0.000000 -0.000000 0.000000 1.866744 -1.776835 0.243735 0.963170 -3.110682 16.165611 4.104508 -5.649140 -14.798327 0.000000 -0.000000 0.000000 -0.079617 0.987464 10.414591 1.872064 -0.196419 4.136813 0.155621 0.956886 3.572836 -1.239592 2.970185 22.464765 -0.428667 2.344442 13.820759 -18.521374 12.686489 5.106677 -57.276637 0.582930 12.089758 -13.084019 -71.199878 29.518032 -2.543150 -11.143457 -20.135673 16.387520 -8.635133 5.228439 56.757123 -7.803800 15.415530 -24.576978 78.734367 -1.881656 9.830237 10.964778 -8.750043 
0.519852 -0.471885 1.014092 89.093641 -0.498048 85.430790 -0.146204 -0.366527 7.447815 -3.268701 -8.657540 3.257355 2.457743 8.091942 -14.093786 0.000000 -0.000000 0.000000 1.702278 -1.965617 0.033055 1.027763 -3.114593 17.186935 4.160984 -5.187114 -15.910595 0.000000 -0.000000 0.000000 0.097549 1.104106 10.683489 1.569904 -0.025785 3.576934 -0.128827 0.927071 3.705896 -0.681853 3.386209 21.164522 -0.741431 1.867597 14.114359 -19.218871 12.759665 3.893214 -57.753591 -0.214939 11.176039 -3.980612 -65.986526 21.059796 -1.403100 -9.890813 -16.323483 17.467236 -8.346872 4.708378 57.289074 -6.283425 14.985422 -20.893899 72.467878 1.755521 8.743068 9.980179 -6.859848 
0.523580 -0.474692 1.013074 89.148966 -0.554656 84.888256 -0.134525 -0.219471 6.668558 -3.728175 -8.754156 6.602408 2.504906 8.244282 -15.080630 0.000000 -0.000000 0.000000 1.797723 -2.141268 0.972826 0.996809 -2.597441 17.243443 3.777117 -4.922676 -16.922487 0.000000 -0.000000 0.000000 0.316030 1.260534 11.531337 1.363646 -0.121916 2.971163 -0.306394 0.750601 3.645470 -0.449630 3.710436 20.171350 -1.266468 1.904318 14.751542 -19.929302 12.444846 3.235809 -58.254889 -1.053449 9.765811 2.929006 -59.966933 15.554942 -1.147366 -9.025708 -13.001195 18.634671 -7.617716 4.083227 57.882342 -4.791315 14.307868 -18.702106 64.991754 3.718168 8.660894 9.000231 -6.319806 
0.527441 -0.478472 1.010981 89.063816 -0.416999 84.318564 -0.027539 -0.510665 4.425250 -4.371099 -8.094096 12.588929 2.691630 8.524216 -16.784593 0.000000 -0.000000 0.000000 2.106715 -2.072320 1.943423 1.192419 -2.247873 17.396963 3.169110 -4.632711 -17.930953 0.000000 -0.000000 0.000000 0.889359 1.277065 12.136066 1.124138 -0.225707 2.876439 -0.562838 0.876544 3.720474 -0.517500 3.890171 19.080768 -1.612774 2.079708 14.952484 -20.871183 11.343801 2.708191 -58.941516 -1.900656 8.183982 9.648052 -51.851991 8.901779 -1.042825 -7.167055 -10.333818 19.723451 -5.899029 3.649598 59.145226 -2.426102 13.220803 -17.659999 54.211250 3.104176 8.338688 7.193274 -6.901339 
0.531733 -0.482136 1.007919 89.081752 -0.279672 83.719897 0.096663 -0.895778 1.916075 -5.009819 -7.199287 19.269062 1.510505 8.803603 -16.815166 0.000000 -0.000000 0.000000 2.583433 -2.056071 2.991889 1.239677 -1.835863 17.453501 2.372119 -4.964706 -18.377206 0.000000 -0.000000 0.000000 1.384201 1.396636 13.082611 1.050253 -0.433849 2.579406 -0.687177 0.979389 3.516175 -0.974550 4.210785 18.415887 -1.536287 1.988229 14.982316 -21.049950 10.351595 2.374752 -59.484180 -2.300360 7.006210 12.282247 -45.323899 5.438681 -0.540144 -5.520090 -10.208923 20.157074 -4.100379 3.864121 60.507972 -0.277374 12.031500 -17.571006 45.004630 1.324182 7.487999 5.452465 -7.679756 
